<svg xmlns="http://www.w3.org/2000/svg" width="294.312" height="283.257" viewBox="0 0 294.312 283.257"><path fill="#0098BC" d="M.273 133.018C-1.721 101.221 7.221 77.94 26.141 50.96c20.455-29.173 47.686-37.811 81.856-43.023 44.127-6.73 102.368-11.916 135.838 22.185 30.546 31.123 46.89 86.599 46.434 129.618-1.433 134.931-179.221 156.726-258.569 74.217C.543 201.555 9.353 171.958.273 133.018"/><g fill="#FFF"><path d="M38.487 111.963c.435.436.783.87 1.133 1.393 1.304 1.652 2.086 4.787 2.611 9.487.085.435.085 1.046.261 2.003v2.088c0 .436 0 1.131.085 2.001l.09 1.829v2.7c.086 2.436.086 1.479-.09 4.612-.085 2.783-1.216 5.135-2.871 6.79l-2.438 2.175 1.743 2.002c1.219 1.828 1.913 3.133 2.263 3.917.347.695.869 2.177 1.304 4.439.436 2.174.698 5.049.784 8.531l.088 5.048c0 1.218.174 1.479.26 2.438.349 1.565.609 1.217-.956 1.305-1.305.088-2.002.261-3.482.088-.957 0-1.479-.176-1.479-.438 0-.695.086-1.305.175-1.74.086-.087 0-.696.086-1.827.175-1.045.088-2.004.088-2.959v-1.74c-.088-2.699-.436-5.399-1.307-8.098-.262-1.044-.608-2.263-1.219-3.654-.086-.262-.26-.523-.433-.784-.176-.349-.262-.609-.352-.871-.085-.175-.173-.347-.259-.609-.175-.26-.697-.695-1.48-1.13-.436-.263-.871-.35-1.133-.35-.085 0-.085 0-.173.087h-.176a4.305 4.305 0 0 0-.262.783c.089.087.089.437.089 1.133-.089.783-.173 1.566-.089 2.264v8.354l.176 7.311c0 1.395 0 2.353.086 2.788-.086.696-.086 1.043-.173 1.043.087.523-.437.872-1.566.958-.262.088-.611.088-.872.088-.347.086-.694.086-1.13.086-.436.087-.696.087-.96.087-1.042 0-1.567-.173-1.567-.347-.084-.785.09-2.96.264-6.528.174-3.658.174-6.268.262-7.835-.088-1.131-.088-2.089 0-2.698v-.609c-.088-.261-.088-.435-.088-.609 0-.436.088-.956.175-1.653-.087-.174-.175-.435-.263-.872 0-.26 0-.522.088-.869v-1.131c.088-.872.088-2.003 0-3.483.088-1.479.088-3.655 0-6.701v-6.79l-.088-4.005v-3.915l-.086-3.568c0-6.618 0-10.88.174-12.97.088-1.916.261-1.22 1.654-1.57 1.219-.171 2.262-.26 3.221-.26.521-.086.956 0 1.304.089 2.438.436 4.092.695 4.962 1.48.26.084.783.52 1.566 1.216zm-5.832 30.552c.869 0 1.741-.349 2.699-1.044a3.25 3.25 0 0 0 1.131-1.307c.174-.436.435-1.479.695-3.133.262-1.654.262-4.091.262-7.139l-.086-1.828c0-2.784-.262-4.353-.523-6.178-.087-1.047-.348-1.918-.871-2.525-.434-1.48-.78-2.262-.869-2.351-.087-.176-.348-.436-.696-.783a6.196 6.196 0 0 0-.611-.697 3.962 3.962 0 0 0-1.912-.522c-.175 0-.349.175-.436.437-.173.521-.263 1.655-.263 3.134 0 .61.09 2.176.174 4.526.176 2.437.176 3.743.176 5.57.086 2.265.086 3.829 0 4.7l.086 3.832v2.521c.088 1.482.263 2.351.524 2.699h.259c.087.088.174.088.261.088zM55.11 173.154c0-.087.176-.696 0-1.915-.087-1.653-.087-4.787-.087-10.271 0-1.48 0-2.525-.085-3.309.085-.347.085-.956.085-1.914 0-.696 0-1.219-.085-1.566.085-.263.085-.783.085-1.655 0-5.396.087-9.4.087-14.709v-4.351c.087-1.654.176-4.18.176-7.488v-6.354c0-1.565 0-2.611.088-3.221-.088-.261-.088-.695-.088-1.131v-3.832l-.089-.172c0-.089 1.568-.261 4.614-.35 1.828 0 5.569 0 6.526.089.352-.089.96-.089 1.742-.089.784.089 1.305.176 1.568.176.869.085 1.393.26 1.479.346l.086.089v.173l.175.437v.175c0 .173 0 .347.087.608.088.26.088.436.088.521v.61c0 1.132-.088 2.438-.263 2.438l-.087.087-.522.174h-.52c-.262.086-.521.086-.698.086h-1.738c-.436 0-.959.088-1.654.176-2.002-.088-4.613-.176-4.7-.262v.174c0 .177-.09.263-.174.349-.089.436.084.957 0 1.133.174.608 0 1.131 0 2.002 0 .262 0 .695-.089 1.305l-.086 15.407c.175 3.309 0 4.353.086 7.139h1.22c.261 0 3.045 0 3.479-.087h1.135c.695 0 1.217.087 1.65.348.176.086.351.522.438 1.305v.436c0 .958.088 1.219.088 2.262v.436c-.088.87-.262 1.306-.525 1.306-.434.175-1.129.262-1.999.262h-4.44c-.695 0-.956-.174-1.131.174-.087.263.086.87 0 1.22-.087.607-.173 2.176-.173 2.96v5.483c0 .347 0 .784-.089 1.394v7.659c.437-.087.348-.087 1.307-.087.956 0 3.915 0 4.176-.087h1.221c.521.087.871.087.957.087h3.568c.434.087.61 1.045.61 2.959 0 2.002-.088 3.046-.349 3.046-.437.261-1.045.349-1.741.349h-.869c-.35-.088-.784-.088-1.131-.088h-.61c-.609-.087-4.006-.087-5.571-.087H58.94c-.261.087-.696.087-1.307.087-.782 0-1.739-.173-2.437-.608v-.173c-.087-.176-.087-.263-.087-.351v-1.31zM89.841 120.579c-.086 6.354-.174 10.185-.174 11.49 0 .696 0 1.74-.086 3.22V139.817c.086.696.086 1.132.086 1.395v.608c0 1.652.088 2.698.174 3.307-.086 1.828-.174 2.96-.174 3.394v9.14c0 1.306 0 2.351.088 2.961v.958c-.088.435-.088.783-.088 1.044v.521c-.086.437-.086 1.132-.086 1.914V168.021c-.088.435-.088 1.132-.088 1.913 0 1.133.174 1.828.088 2.264 0 .785-.088 1.307-.176 1.565.088.088.088.264.088.437v.088c-.174.261-.523.348-.956.348h-.609c-.783 0-1.568 0-2.089.088-.784-.263-1.221-.436-1.308-.523-.349-.437-.349-1.74-.349-3.742v-5.135c0-.349 0-.958-.086-1.827v-2.178c.086-.61.086-1.743.086-3.219v-29.339c0-1.913 0-3.307.089-4.262v-12.972c0-.521.868-.782 3.045-.782h2.698c.001.172-.085 3.481-.173 9.834zM108.294 113.268c.086.263.175.521.263.696.085.262.259.608.433 1.219.09.609.261 1.045.352 1.306.084.435.346 1.219.693 2.263.088.175.176.61.351 1.395.173.781.347 1.392.435 2.001a79.95 79.95 0 0 1 1.131 3.743l1.219 4.787c0 .087.175.782.521 2.002l.871 2.959c.784 2.353 1.22 3.917 1.305 4.789.088.869.262 1.913.698 3.045.088.522.348 1.219.608 2.092l.523 1.478c2.262 7.051 3.566 10.532 3.916 10.532l.173-1.828c0-.088 0-.26.088-.522v-.608c0-.176-.088-.522-.174-.959.086-.521.086-1.479.086-2.784-.086-.697-.086-1.74-.086-3.22v-2.177c-.087-1.045-.087-1.828-.087-2.438l-.086-2.35c0-.26 0-.695-.087-1.218-.088-.522-.088-.959-.088-1.219l-.696-23.067c0-.347 0-.61-.089-.784 0-.173 0-.435.089-.782 0-.437 0-.696.087-.871v-1.393c0-.347.434-.607 1.306-.783.087-.088.348-.088.608-.088.089 0 .698.088 1.741.264.872 0 1.394.261 1.48.693.087.089.087.35.087.698s-.087.608-.174.871c.174.956.261 1.74.261 2.437.523 20.542.783 30.986.783 31.335 0 .262 0 .523.087.957v.873c0 .695-.087 1.216-.174 1.651.087.436.087 1.133.087 2.091 0 .261-.087.783-.175 1.479.088.871.175 2.089.175 3.743v1.827c-.087.784-.087 1.306-.087 1.743 0 1.564 0 2.696.087 3.479v3.309c.087.348.087.869.087 1.48 0 .605 0 1.129-.087 1.393v1.568c0 .348 0 .609.087.782-.087.607-.174 1.044-.436 1.479.089 0 .089 0 .089.088 0 .174-.176.261-.523.348H124.222a9.168 9.168 0 0 1-2.087-.522c-.262-.088-.436-.261-.695-.521-.264-.264-.438-.696-.61-1.132a9.11 9.11 0 0 1-.521-1.219c-.176-.349-.35-.87-.609-1.48-.262-.696-.351-1.132-.436-1.394l-1.308-3.828-1.303-3.57-1.22-3.395-1.395-3.742c-.433-1.131-1.043-3.047-1.825-5.746l-.351-1.217c-.259-.872-.435-1.48-.695-1.916 0-.261-.088-.696-.26-1.306-.176-.609-.262-1.045-.262-1.305-.088-.262-.177-.61-.261-.957a6.015 6.015 0 0 1-.351-.871c-.084-.262-.084-.521-.174-.696l-1.045-4.441-.174-.521c-.085 0-.262.872-.348 2.701v4.264c0 1.827 0 3.221.086 4.177-.26 3.918-.348 9.314-.348 16.105-.086 7.138-.086 11.141-.172 12.011 0 .087-.351.175-1.131.175-.872 0-1.83-.088-2.962-.175-1.131-.175-1.219-.349-1.219-.521-.085-.349-.085-.958-.085-1.829 0-1.131 0-1.914-.09-2.522 0-.088 0-.176.09-.349v-1.134c.085-.173.085-.347.173-.435-.088-.263-.088-.696-.088-1.218 0-.524 0-.872.088-1.133l.175-27.593c.086-1.132.086-2.784.086-5.136.087-.609.087-1.569.087-2.697.089-.263-.087-.61-.087-1.047v-8.355c0-.26 0-.61-.086-1.044v-.957c0-.785.173-1.743.173-2.96-.087-1.131-.087-2.088-.087-2.785 0-.175 0-.262.087-.262v-.087c0-.262 0-.521.87-.61a3.447 3.447 0 0 1 1.132-.174h1.307c1.044.348 1.653.611 1.827.871.002.084.09.346.176.694zM139.977 134.943v-11.666c-.087-.435-.087-.957-.087-1.74 0-1.045 0-1.829.087-2.263v-9.139c0-.26.261-.435.874-.609h.258c.174 0 .523 0 .959-.09.435-.084.696-.084.958-.084h1.827a7.86 7.86 0 0 1 1.656.174c1.476.261 2.609.435 3.305.609 1.131.173 2.089.435 2.787.782.608.176 1.129.521 1.652 1.046.609.436.957 1.045 1.217 1.653.438.782.785 1.741.961 2.697.085.262.261.697.347 1.132.087.697.175 1.133.175 1.393.088.61.26 1.741.346 3.395.089.785.174 2.09.263 3.918 0 .437 0 1.219.088 2.262v2.438c-.088 1.13-.262 2.959-.351 5.657l-.258 2.873c-.263.956-.435 1.83-.524 2.438-.085.26-.261.608-.435 1.044-.174.435-.348.783-.436 1.045a2.658 2.658 0 0 1-1.131 1.045c-.262.347-.609.693-1.131 1.13l-1.481.958c-.435.262-.608.522-.608.61 0 .085.174.173.521.349l1.131.609c.438.175.696.346.783.434.436.262.874.782 1.395 1.479.261.524.609 1.307.871 2.351.346 1.393.521 2.438.61 3.135.086.695.172 1.218.172 1.651 0 .089 0 .349.087.783v.873c.088.085.088.172.088.435v.347c-.088.176-.088.349-.088.436 0 .263 0 .436.088.523-.088.088-.088.261-.088.435v.609c-.087.262-.087.437-.087.608v1.219c-.086.263-.086.696-.086 1.308-.086.781-.176 1.394-.176 1.738v.35c-.085.261-.085.523-.175.783-.086.262-.086.522-.173.784-.087.173-.087.349-.087.522-.262.605-.436 1.129-.521 1.566-.35.782-.785 1.394-1.219 1.827-1.22 1.306-3.31 2.004-6.182 2.177-.522.087-1.306.087-2.438.087-.26-.087-.783-.087-1.479-.087-.698 0-1.218 0-1.566.087a17.031 17.031 0 0 0-2.524-.174c-.087-.086-.176-.262-.263-.523.087-.347.176-.781.176-1.305v-1.654c-.089-.348-.176-.608-.176-.872 0-.171 0-.435.087-.693v-4.18c0-.347 0-.61-.087-.869v-1.305c0-.61 0-.958-.086-1.221.086-.347.086-.783.086-1.393 0-.086 0-.175.087-.261V159.922c-.087-.174-.087-.351-.087-.437 0-.087 0-.346.087-.695 0-.35 0-.609.089-.784-.089-.435-.176-.695-.176-.782s0-.175.087-.262v-5.57c0-1.133 0-2.003.089-2.609-.089-.265-.089-.784-.089-1.396V144.341c.089-.435.089-.871.089-1.132-.089-.61-.089-1.478-.089-2.698v-5.568zm11.838 24.022c-.174-1.739-.433-3.394-1.131-4.699a3.442 3.442 0 0 0-.871-1.393c-.436-.435-.784-.609-1.132-.697-1.307-.521-2.173-.782-2.785-.782h-.087c-.173.086-.262 1.393-.262 3.743-.086 2.349-.086 5.223-.086 8.528 0 3.222 0 5.486-.088 6.791.088 0 .348.085.959.174h.785l.78-.089c.783-.171 1.393-.523 1.828-.955.695-.609 1.132-1.48 1.392-2.524.438-1.22.697-2.786.697-4.7v-3.397zm-5.744-41.52V120.491c0 .609-.089 1.395-.175 2.438 0 .261 0 .696.086 1.305v2.003c0 1.479 0 2.609-.086 3.396-.087 3.395-.175 5.22-.26 5.482 0 .086 0 .261.085.521v.437c0 .347 0 .783-.085 1.393-.089.609-.089.957-.089 1.218v2.526c0 .608 0 1.304.089 1.912.085.61.085.958.085 1.22h.175c.437 0 .872-.086 1.307-.262a4.174 4.174 0 0 0 1.305-.87c.61-.435 1.046-.957 1.393-1.74.438-.522.958-1.307 1.567-2.438.435-2.09.697-3.479.781-4.179.088-.173.088-.433.176-.782v-4.962c0-.608-.088-1.565-.176-2.697v-1.221c-.084-.607-.084-.956-.084-1.216 0-.264-.088-.958-.176-2.004-.087-1.045-.174-1.826-.261-2.264-.087-.347-.087-.782-.173-1.218-.088-.434-.173-.783-.173-.87-.089-.263-.089-.521-.089-.785v-.26c-.872-.869-1.394-1.305-1.567-1.393a4.133 4.133 0 0 0-1.742-.347c-.173-.088-.521-.088-.957-.088-.435 0-.782 0-1.045.088 0 .784 0 1.654.089 2.611zM175.229 110.745c0 .261 0 .433.087.521v.434c.087.263.087.437.087.611-.087 1.652-.174 3.307-.174 5.134V128.499c.087.608.174 1.74.174 3.309.088 2 .088 5.569.088 10.618 0 1.653.087 3.395.087 5.309V155.484c.086.434.086 1.132.086 1.914 0 .87-.086 1.565-.173 2.001.087 1.655.173 2.873.173 3.83v2.7l.087 3.308h2.786c.697 0 1.132 0 1.393-.087.783 0 1.221-.089 1.306-.175.696.086 1.653.086 2.785.086h.871c.347-.086.609-.086.784-.086.956 0 1.565.086 1.916.262.259 0 .349.694.349 2.175v.436c0 1.306-.09 2.698-.349 2.698-.262 0-.524.087-.96.263h-1.479c-.433.086-1.306.086-2.437.086h-3.917c-.262-.086-.697-.086-1.307-.086h-.523c-.344.086-.781.086-1.217.086H173.75c-.521 0-1.131 0-1.742.087h-1.738c-.436-.087-.61-.349-.61-.784V171.5c-.087-.174-.087-.435-.087-.784 0-.26.087-.783.175-1.564-.088-.784-.088-1.829-.088-3.221-.087-.785-.087-2.091-.087-3.744v-4.004c0-1.654.087-2.96.175-3.829-.088-.523-.088-1.219-.088-2.178-.087-.957-.087-1.566-.087-1.827.087-.782.087-2.088.087-3.918v-8.181c0-.523 0-1.308.088-2.351v-2.436c0-1.047 0-1.83-.088-2.439.088-.783.088-1.915.088-3.395 0-.782 0-1.828.087-3.131v-9.404c-.087-.435-.087-.869-.087-1.131.087-.956.176-1.565.176-1.827l.172-1.392v-.351c0-.26.35-.435.958-.435.696-.085 1.132-.174 1.392-.174.35 0 .609 0 .784.089.959 0 1.742.26 2.003.694v.178zM219.012 171.239c-.087-.783-.175-1.479-.175-1.914 0-.436-.176-.784-.087-1.046-.089-.957-.349-2.872-.609-5.918s-.435-4.702-.521-5.049a28.961 28.961 0 0 0-3.396-.349c-.087 0-.435 0-1.133-.088H211.004c-.262 0-.61 0-1.132-.086h-1.742c-.348.086-.608.086-.783.086-1.479 0-2.35.088-2.438.175-.085.088-.174.435-.348 1.132 0 .782-.174 1.655-.174 2.612-.175 1.043-.175 1.653-.26 1.913-.088.436-.176.957-.35 1.655-.175.782-.26 1.305-.347 1.652v.524c0 .782-.088 1.739-.351 2.785-.26 2.785-.609 4.873-1.22 6.354a4.783 4.783 0 0 1-1.478.262h-1.133c-1.652 0-2.438-.175-2.522-.61v-.174c0-.261.085-.87.172-1.739.176-.785.263-1.395.263-1.742.26-1.48.609-3.829.869-6.965.351-3.308.609-5.655.871-7.137.09-.609.175-1.394.348-2.351.263-.957.351-1.74.438-2.177l.347-2.35.522-3.133c.174-.609.348-1.655.436-3.046 0-.261.088-.696.174-1.395l.347-1.479.437-2.785c.871-6.354 2.002-10.184 3.135-16.016.086-.435.174-1.046.35-1.828.084-.783.172-1.307.259-1.479.871-4.091 2.178-6.964 2.524-9.054.174-.347.521-.606 1.046-.781.435-.265.348-.349 2.001-.349 2.264 0 4.525.523 7.224 1.565.437 1.395.697 2.613.697 3.743v.522c.172.523.437 1.219.521 2.175 0 .263.089.61.174 1.221.088.61.088 1.044.088 1.306l.172 2.872c.091 1.045.177 1.915.177 2.524.173.609.259 1.394.259 2.522.091.698.177 1.655.177 2.788l.261 4.178.26 2.958c.263 3.744.61 6.791.871 9.228l.782 6.181c.176 1.653.349 3.219.525 4.7.261 2.175.434 3.394.434 3.743v.349c0 .957.088 2.176.348 3.741.435 3.57.349 4.265.784 8.271v.434c0 .697.174 1.046.087 1.307-.087.175-.347.262-.871.437a20.18 20.18 0 0 1-1.565.26c-.35.175-.96.262-1.132.262-1.305 0-1.829-.262-1.829-.783v-.088c-.438-.955-.697-2.436-.697-4.526zm-5.745-20.28h1.217c.61 0 .958 0 1.222-.088l1.305-.088-.176-3.656c-.085-.521-.173-1.652-.259-3.48 0-.262 0-.695-.089-1.307v-1.392c0-.089-.086-1.044-.262-3.048 0-.693-.086-1.739-.259-3.22l-.698-5.833c-1.131-9.922-.956-8.702-1.653-12.882-.086-.436-.694-.348-.87-.521-.088 0-.436 1.305-.697 2.001l-.608 1.743c-.263.434-.522 1.565-.87 3.306-1.132 5.483-1.915 8.53-2.438 12.708l-.608 4.789c-.261 1.652-.435 2.523-.435 2.609 0 .088 0 .176.087.263v.26c-.087.262-.087.523-.175.785-.087.262-.087.521-.175.695 0 .174 0 .263-.086.35 0 .173-.087.955-.35 2.436-.261 1.479-.346 2.525-.346 2.96v.348c1.131.263 2.263.351 3.306.351.176-.088.523-.088.959-.088h2.958zM257.311 120.146c0 .261.173 1.217.173 2.959V125.192c0 .61 0 1.047.088 1.307 0 .436 0 .957.089 1.742v.694c0 .263 0 .784.085 1.394l-.085 1.481c.085.26.085.781.175 1.392v1.392l-.09 2.874c0 2.785.09 5.048.09 6.79 0 .696 0 1.218-.09 1.739v3.309c.09.436.09 1.131 0 2.175v.959c0 .26 0 .696-.085 1.478-.089.698-.089 1.133-.089 1.395l-.088 2.611c-.088 2.351-.259 4.352-.521 6.005l-.609 2.613c-.175.521-.525 1.306-.959 2.35-.87 1.305-1.393 2.089-1.479 2.176-.088.261-.349.522-.696.957-.438.262-.698.609-.871.871-.175.174-.785.609-1.916 1.305-1.48.697-3.046 1.132-4.699 1.132h-.175c-1.132 0-2.001-.086-2.699-.261-.694-.174-1.478-.522-2.35-1.044-.87-.608-1.653-1.48-2.262-2.699-.521-1.394-1.132-3.047-1.654-5.049-.262-1.391-.523-2.524-.609-3.48-.087-.261-.175-.87-.262-1.916a40.042 40.042 0 0 0-.263-2.438c-.346-3.566-.521-7.396-.521-11.488-.086-8.357-.26-15.232-.349-22.632l-.176-8.616v-1.219c-.085-.523-.085-.871-.085-1.132 0-.436 0-.784.085-1.044l-.085-1.395c0-.172.523-.261 1.479-.436.088 0 .522.088 1.133.175.609.089 1.394.175 1.827.35h.35c.608 0 .955.261.87.694 0 .088.085 1.655.174 4.875v12.448c0 .435.086 1.131 0 2.086.086.871.086 1.569.086 2.004 0 .437 0 1.131-.086 2.089-.089.959-.089 1.74 0 2.265v.609c0 .261 0 .782.086 1.393l-.086 1.391v.697l.174 4.266c.173 3.221.26 5.921.436 7.922.086 1.305.086 2.522.174 3.655.085.783.174 1.393.174 1.655 0 .087.087.346.175.783.087.347.175.607.087.782v.261c0 .175 0 .436.088.697.085.26.085.435.085.521.086.174.086.437.175.697.088.262.088.434.088.521l.26 1.393c.088.524 0 .786 0 .872.264 1.305.609 2.176.869 2.61.696.959 1.568 1.394 2.7 1.394.261 0 .608-.088 1.218-.174a4.443 4.443 0 0 0 1.916-1.133c1.132-1.131 1.741-1.827 1.914-2.088.348-.784.609-1.742.869-3.048 0-.085 0-.26.09-.436v-.695c.173-2.003.261-4.354.346-7.137v-7.573l.09-2.263V136.944c0-2.783 0-5.656-.09-10.618 0-3.394-.085-5.918-.085-7.746 0-.871 0-1.567.085-2.09 0-2.001-.085-3.48.09-5.311 0-.085.085-.172.26-.261.173-.086.609.089.695.089h1.481l.698.087c.956-.087 1.74-.087 1.74 0 .172.433.261 6.438.347 9.052z"/></g><g fill="#FFF"><path d="M101.181 205.089c.491.493.739 1.083.739 1.771 0 .706-.248 1.306-.739 1.796a2.415 2.415 0 0 1-1.771.739 2.445 2.445 0 0 1-1.796-.739 2.433 2.433 0 0 1-.739-1.796c0-.688.245-1.277.739-1.771a2.443 2.443 0 0 1 1.796-.737c.687 0 1.278.244 1.771.737zM118.949 194.094a7.62 7.62 0 0 1 2.312 1.365l-1.896 2.62c-.929-.704-1.864-1.059-2.813-1.059-.985 0-1.729.362-2.229 1.088-.501.724-.755 1.896-.755 3.51 0 1.561.254 2.667.755 3.317s1.225.978 2.175.978c.5 0 .956-.079 1.364-.239.408-.156.901-.412 1.476-.767l1.924 2.732c-1.466 1.169-3.131 1.755-4.987 1.755-1.507 0-2.808-.32-3.904-.962-1.095-.64-1.938-1.54-2.533-2.701-.596-1.162-.892-2.523-.892-4.084 0-1.562.296-2.945.892-4.153.595-1.207 1.438-2.15 2.533-2.829 1.097-.679 2.369-1.018 3.821-1.018 1.017 0 1.938.15 2.757.447zM139.88 195.725c1.282 1.384 1.925 3.32 1.925 5.812 0 1.579-.292 2.959-.879 4.138-.585 1.181-1.422 2.096-2.509 2.746-1.086.65-2.374.975-3.859.975-2.249 0-4.019-.692-5.311-2.077-1.293-1.384-1.937-3.319-1.937-5.81 0-1.58.293-2.959.878-4.14.586-1.179 1.422-2.095 2.51-2.746 1.086-.65 2.372-.975 3.859-.975 2.266-.001 4.043.692 5.323 2.077zm-7.329 2.285c-.447.752-.669 1.918-.669 3.498 0 1.615.219 2.797.653 3.539.439.745 1.11 1.115 2.022 1.115.893 0 1.56-.377 2.005-1.129.448-.751.671-1.918.671-3.497 0-1.619-.219-2.796-.656-3.54-.436-.743-1.11-1.115-2.02-1.115-.893 0-1.56.377-2.006 1.129zM161.733 195.725c1.282 1.384 1.923 3.32 1.923 5.812 0 1.579-.294 2.959-.881 4.138-.584 1.181-1.42 2.096-2.506 2.746-1.088.65-2.374.975-3.861.975-2.248 0-4.019-.692-5.309-2.077-1.291-1.384-1.938-3.319-1.938-5.81 0-1.58.295-2.959.879-4.14.586-1.179 1.423-2.095 2.507-2.746 1.087-.65 2.375-.975 3.861-.975 2.267-.001 4.043.692 5.325 2.077zm-7.333 2.285c-.444.752-.665 1.918-.665 3.498 0 1.615.215 2.797.652 3.539.438.745 1.111 1.115 2.021 1.115.892 0 1.562-.377 2.007-1.129.446-.751.668-1.918.668-3.497 0-1.619-.217-2.796-.654-3.54-.436-.743-1.11-1.115-2.021-1.115-.89 0-1.56.377-2.008 1.129zM184.364 195.711c.909 1.377 1.366 3.298 1.366 5.767 0 1.525-.239 2.887-.71 4.086-.475 1.198-1.159 2.138-2.051 2.814-.89.679-1.933 1.017-3.122 1.017-1.486 0-2.685-.51-3.597-1.532v6.773l-4.401.473v-20.987h3.874l.224 1.644c.576-.722 1.234-1.258 1.979-1.603a5.42 5.42 0 0 1 2.283-.515c1.859-.001 3.245.69 4.155 2.063zm-3.204 5.825c0-1.748-.196-2.958-.587-3.638-.389-.679-.977-1.018-1.758-1.018-.502 0-.969.149-1.405.446-.438.298-.823.725-1.159 1.283v6.242c.597.874 1.348 1.31 2.259 1.31 1.766.001 2.65-1.542 2.65-4.625z"/></g><path fill="#FFF" d="M134.286 76.896c-.297 0-.557-.01-.776-.031-.831-.076-1.729-.116-2.681-.162-3.64-.172-8.173-.385-14.471-2.619-4.975-1.766-14.961-9.215-16.079-10.333a1.481 1.481 0 0 1 2.093-2.1c.952.949 10.68 8.114 14.977 9.639 5.887 2.087 10.176 2.289 13.621 2.453.981.047 1.911.09 2.811.172 2.448.228 12.912-1.412 14.82-2.072 3.039-1.048 25.841-10.387 31.705-18.334a1.483 1.483 0 0 1 2.386 1.76c-7.032 9.526-32.874 19.29-33.126 19.378-1.879.648-11.455 2.249-15.28 2.249z"/><path fill="#FFF" d="M160.018 94.181c-5.41 0-15.749-1.222-17.226-1.401-7.454-.899-21.041-2.877-28.26-6.012-2.64-1.147-14.426-23.188-14.533-23.405a1.483 1.483 0 0 1 2.652-1.321c2.784 5.586 11.493 20.48 13.188 22.062 11.959 5.115 42.206 7.414 45.78 7.13 1.222-1.199 4.438-6.415 9.908-17.72 4.477-9.246 8.029-17.548 8.539-19.499a1.483 1.483 0 0 1 2.867.749c-.978 3.737-15.361 35.815-19.762 39.033-.374.277-1.546.384-3.153.384z"/><path fill="#FFF" d="M124.479 75.19a1.482 1.482 0 0 1-1.225-2.313c2.532-3.734 6.177-10.962 8.839-16.24l.476-.942a1.483 1.483 0 0 1 2.647 1.333l-.476.945c-2.851 5.646-6.395 12.677-9.034 16.567-.285.425-.753.65-1.227.65zM148.614 67.869a1.48 1.48 0 0 1-1.425-1.087 1.478 1.478 0 0 1 1.03-1.822l2.769-.761c10.289-2.826 19.171-5.268 29.296-11.092a1.481 1.481 0 1 1 1.478 2.567c-10.452 6.014-19.506 8.5-29.988 11.383l-2.762.758a1.399 1.399 0 0 1-.398.054z"/><path fill="#FFF" d="M154.583 72.01c-.233 0-.474-.057-.695-.173-5.815-3.104-10.127-7.933-13.277-11.456-1.662-1.858-3.933-4.401-4.721-4.401-.006 0-.013 0-.018.002 0 0-.26.148-.621.977-.326.749-1.202 1.089-1.952.761s-1.092-1.203-.764-1.951c.264-.602 1.063-2.426 2.872-2.715 2.296-.368 4.332 1.908 7.411 5.354 3.171 3.545 7.114 7.959 12.464 10.813a1.48 1.48 0 0 1-.699 2.789zM128.427 68.548h-.019c-11.169-.127-19.527-2.349-24.524-3.677-1.206-.32-2.154-.573-2.856-.719a1.48 1.48 0 1 1 .597-2.902c.784.162 1.771.424 3.02.756 4.862 1.291 13 3.455 23.798 3.578a1.483 1.483 0 0 1-.016 2.964zM153.702 93.635c-5.344-3.968-14.621-17.312-15.016-17.88l2.437-1.688c.093.135 9.394 13.511 14.347 17.189l-1.768 2.379zM121.743 88.266l-2.218-1.965c1.69-1.907 10.712-11.633 11.094-12.046l2.175 2.016c-.095.1-9.381 10.114-11.051 11.995z"/></svg>
